<?xml version="1.0" encoding="utf-8"?>
<!-- Generator: Adobe Illustrator 25.0.1, SVG Export Plug-In . SVG Version: 6.00 Build 0)  -->
<svg version="1.1" xmlns="http://www.w3.org/2000/svg" xmlns:xlink="http://www.w3.org/1999/xlink" x="0px" y="0px"
	 viewBox="0 0 185 27" style="enable-background:new 0 0 185 27;" xml:space="preserve">
<style type="text/css">
	.st0{fill:#A0A0A0;}
	.st1{fill:#D6D6D6;}
	.st2{fill:#3A3A3A;}
	.st3{opacity:0.75;fill:#199B02;}
	.st4{opacity:0.75;clip-path:url(#SVGID_2_);fill:#199B02;}
	.st5{fill:#E8E8E8;}
	.st6{opacity:0.75;clip-path:url(#SVGID_4_);fill:#199B02;}
</style>
<g id="图层_1">
	<g>
		<g>
			<path class="st0" d="M21.2-9.5c0,0,0,3-3.6,3s-3.6-3-3.6-3H21.2z"/>
			<path class="st0" d="M32.1-9.5c0,0,0,3-3.6,3s-3.6-3-3.6-3H32.1z"/>
		</g>
		<g>
			<path class="st0" d="M164-9.5c0,0,0,3-3.6,3s-3.6-3-3.6-3H164z"/>
			<path class="st0" d="M175-9.5c0,0,0,3-3.6,3s-3.6-3-3.6-3H175z"/>
		</g>
		<path class="st1" d="M185-9.5H4v-3c0-11,9-20,20-20h160c0.6,0,1,0.4,1,1V-9.5z"/>
		<g>
			<g>
				<path class="st2" d="M80.6-19.3h-2.1c-0.6,0-1-0.4-1-1v-5.5c0-0.6,0.4-1,1-1h2.1c0.6,0,1,0.4,1,1v5.5
					C81.6-19.8,81.2-19.3,80.6-19.3z"/>
				<path class="st2" d="M90.8-19.3h-2.1c-0.6,0-1-0.4-1-1v-5.5c0-0.6,0.4-1,1-1h2.1c0.6,0,1,0.4,1,1v5.5
					C91.8-19.8,91.4-19.3,90.8-19.3z"/>
				<path class="st2" d="M116.1-19.3H99.4c-0.6,0-1-0.4-1-1v-5.5c0-0.6,0.4-1,1-1h16.8c0.6,0,1,0.4,1,1v5.5
					C117.1-19.8,116.7-19.3,116.1-19.3z"/>
			</g>
			<g>
				<path class="st2" d="M36.9-19.3h-2.1c-0.6,0-1-0.4-1-1v-5.5c0-0.6,0.4-1,1-1h2.1c0.6,0,1,0.4,1,1v5.5
					C37.9-19.8,37.4-19.3,36.9-19.3z"/>
				<path class="st2" d="M47.1-19.3H45c-0.6,0-1-0.4-1-1v-5.5c0-0.6,0.4-1,1-1h2.1c0.6,0,1,0.4,1,1v5.5
					C48.1-19.8,47.6-19.3,47.1-19.3z"/>
				<path class="st2" d="M72.4-19.3H55.6c-0.6,0-1-0.4-1-1v-5.5c0-0.6,0.4-1,1-1h16.8c0.6,0,1,0.4,1,1v5.5
					C73.4-19.8,72.9-19.3,72.4-19.3z"/>
				<path class="st2" d="M26-19.3h-2.1c-0.6,0-1-0.4-1-1v-5.5c0-0.6,0.4-1,1-1H26c0.6,0,1,0.4,1,1v5.5C27-19.8,26.6-19.3,26-19.3z"
					/>
			</g>
			<g>
				<path class="st2" d="M125-19.3h-2.1c-0.6,0-1-0.4-1-1v-5.5c0-0.6,0.4-1,1-1h2.1c0.6,0,1,0.4,1,1v5.5
					C126-19.8,125.5-19.3,125-19.3z"/>
				<path class="st2" d="M135.2-19.3h-2.1c-0.6,0-1-0.4-1-1v-5.5c0-0.6,0.4-1,1-1h2.1c0.6,0,1,0.4,1,1v5.5
					C136.2-19.8,135.8-19.3,135.2-19.3z"/>
				<path class="st2" d="M160.5-19.3h-16.8c-0.6,0-1-0.4-1-1v-5.5c0-0.6,0.4-1,1-1h16.8c0.6,0,1,0.4,1,1v5.5
					C161.5-19.8,161.1-19.3,160.5-19.3z"/>
			</g>
			<g>
				<path class="st2" d="M169-19.3h-2.1c-0.6,0-1-0.4-1-1v-5.5c0-0.6,0.4-1,1-1h2.1c0.6,0,1,0.4,1,1v5.5
					C170-19.8,169.6-19.3,169-19.3z"/>
				<path class="st2" d="M179.3-19.3h-2.1c-0.6,0-1-0.4-1-1v-5.5c0-0.6,0.4-1,1-1h2.1c0.6,0,1,0.4,1,1v5.5
					C180.3-19.8,179.8-19.3,179.3-19.3z"/>
			</g>
		</g>
		<path class="st3" d="M185-13.8H4l10,0c0-2.1,1.7-3.9,3.9-3.9H185V-13.8z"/>
		<g>
			<defs>
				<path id="SVGID_1_" d="M185-28.6H4v0c0-2.1,1.7-3.9,3.9-3.9H184c0.6,0,1,0.4,1,1V-28.6z"/>
			</defs>
			<clipPath id="SVGID_2_">
				<use xlink:href="#SVGID_1_"  style="overflow:visible;"/>
			</clipPath>
			<path class="st4" d="M185-9.5H4v-3c0-11,9-20,20-20h160c0.6,0,1,0.4,1,1V-9.5z"/>
		</g>
	</g>
	<g>
		<g>
			<path class="st0" d="M21.2,23c0,0,0,3-3.6,3S14,23,14,23H21.2z"/>
			<path class="st0" d="M32.1,23c0,0,0,3-3.6,3S25,23,25,23H32.1z"/>
		</g>
		<g>
			<path class="st0" d="M164,23c0,0,0,3-3.6,3s-3.6-3-3.6-3H164z"/>
			<path class="st0" d="M175,23c0,0,0,3-3.6,3s-3.6-3-3.6-3H175z"/>
		</g>
		<path class="st5" d="M185,23H4v-3C4,9,13,0,24,0h160c0.6,0,1,0.4,1,1V23z"/>
		<g>
			<g>
				<path class="st2" d="M80.6,13.1h-2.1c-0.6,0-1-0.4-1-1V6.6c0-0.6,0.4-1,1-1h2.1c0.6,0,1,0.4,1,1v5.5
					C81.6,12.6,81.2,13.1,80.6,13.1z"/>
				<path class="st2" d="M90.8,13.1h-2.1c-0.6,0-1-0.4-1-1V6.6c0-0.6,0.4-1,1-1h2.1c0.6,0,1,0.4,1,1v5.5
					C91.8,12.6,91.4,13.1,90.8,13.1z"/>
				<path class="st2" d="M116.1,13.1H99.4c-0.6,0-1-0.4-1-1V6.6c0-0.6,0.4-1,1-1h16.8c0.6,0,1,0.4,1,1v5.5
					C117.1,12.6,116.7,13.1,116.1,13.1z"/>
			</g>
			<g>
				<path class="st2" d="M36.9,13.1h-2.1c-0.6,0-1-0.4-1-1V6.6c0-0.6,0.4-1,1-1h2.1c0.6,0,1,0.4,1,1v5.5
					C37.9,12.6,37.4,13.1,36.9,13.1z"/>
				<path class="st2" d="M47.1,13.1H45c-0.6,0-1-0.4-1-1V6.6c0-0.6,0.4-1,1-1h2.1c0.6,0,1,0.4,1,1v5.5
					C48.1,12.6,47.6,13.1,47.1,13.1z"/>
				<path class="st2" d="M72.4,13.1H55.6c-0.6,0-1-0.4-1-1V6.6c0-0.6,0.4-1,1-1h16.8c0.6,0,1,0.4,1,1v5.5
					C73.4,12.6,72.9,13.1,72.4,13.1z"/>
				<path class="st2" d="M25.3,13.1h-8.5c-0.9,0-1.7-0.8-1.7-1.7v-0.1c0-3.1,2.5-5.7,5.7-5.7h4.5c0.9,0,1.7,0.8,1.7,1.7v4.1
					C27,12.3,26.3,13.1,25.3,13.1z"/>
			</g>
			<g>
				<path class="st2" d="M125,13.1h-2.1c-0.6,0-1-0.4-1-1V6.6c0-0.6,0.4-1,1-1h2.1c0.6,0,1,0.4,1,1v5.5
					C126,12.6,125.5,13.1,125,13.1z"/>
				<path class="st2" d="M135.2,13.1h-2.1c-0.6,0-1-0.4-1-1V6.6c0-0.6,0.4-1,1-1h2.1c0.6,0,1,0.4,1,1v5.5
					C136.2,12.6,135.8,13.1,135.2,13.1z"/>
				<path class="st2" d="M160.5,13.1h-16.8c-0.6,0-1-0.4-1-1V6.6c0-0.6,0.4-1,1-1h16.8c0.6,0,1,0.4,1,1v5.5
					C161.5,12.6,161.1,13.1,160.5,13.1z"/>
			</g>
			<g>
				<path class="st2" d="M169,13.1h-2.1c-0.6,0-1-0.4-1-1V6.6c0-0.6,0.4-1,1-1h2.1c0.6,0,1,0.4,1,1v5.5
					C170,12.6,169.6,13.1,169,13.1z"/>
				<path class="st2" d="M179.3,13.1h-2.1c-0.6,0-1-0.4-1-1V6.6c0-0.6,0.4-1,1-1h2.1c0.6,0,1,0.4,1,1v5.5
					C180.3,12.6,179.8,13.1,179.3,13.1z"/>
			</g>
		</g>
		<path class="st3" d="M185,18.6H4l10,0c0-2.1,1.7-3.9,3.9-3.9H185V18.6z"/>
		<g>
			<defs>
				<path id="SVGID_3_" d="M185,3.9H4v0C4,1.7,5.7,0,7.9,0L184,0c0.6,0,1,0.4,1,1V3.9z"/>
			</defs>
			<clipPath id="SVGID_4_">
				<use xlink:href="#SVGID_3_"  style="overflow:visible;"/>
			</clipPath>
			<path class="st6" d="M185,23H4v-3C4,9,13,0,24,0h160c0.6,0,1,0.4,1,1V23z"/>
		</g>
	</g>
</g>
<g id="图层_2">
</g>
</svg>
