<?xml version="1.0" encoding="UTF-8"?>
<svg width="52px" height="34px" viewBox="0 0 52 34" version="1.1" xmlns="http://www.w3.org/2000/svg" xmlns:xlink="http://www.w3.org/1999/xlink">
    <title>空调</title>
    <g id="空调健康状态" stroke="none" stroke-width="1" fill="none" fill-rule="evenodd">
        <g id="车子" transform="translate(-1071.000000, -55.000000)">
            <g id="5车厢" transform="translate(928.000000, 44.000000)">
                <g id="编组" transform="translate(143.000000, 11.000000)">
                    <g id="空调" transform="translate(26.000000, 17.000000)rotate(180) scale(-1, 1) translate(-26.000000, -17.000000)">
                        <path d="M52,4 L52,30 L17,30 L17,4 L52,4 Z M37.3363364,5.87991695 C37.1320076,5.69416348 36.8157834,5.70922178 36.63003,5.91355059 L36.63003,5.91355059 L26.63003,16.9135506 L26.5731419,16.9893872 C26.4593656,17.1755031 26.4783283,17.4193516 26.63003,17.5862234 L26.63003,17.5862234 L36.63003,28.5862234 L36.6964476,28.6473071 C36.884674,28.7914193 37.1547108,28.7849712 37.3363364,28.619857 L37.3363364,28.619857 L37.3974201,28.5534394 C37.5415323,28.3652129 37.5350842,28.0951762 37.36997,27.9135506 L37.36997,27.9135506 L27.675,17.25 L37.36997,6.58622338 L37.4244662,6.51430197 C37.5500405,6.31323328 37.517962,6.04503114 37.3363364,5.87991695 Z M32.3363364,5.87991695 C32.1320076,5.69416348 31.8157834,5.70922178 31.63003,5.91355059 L31.63003,5.91355059 L21.63003,16.9135506 L21.5731419,16.9893872 C21.4593656,17.1755031 21.4783283,17.4193516 21.63003,17.5862234 L21.63003,17.5862234 L31.63003,28.5862234 L31.6964476,28.6473071 C31.884674,28.7914193 32.1547108,28.7849712 32.3363364,28.619857 L32.3363364,28.619857 L32.3974201,28.5534394 C32.5415323,28.3652129 32.5350842,28.0951762 32.36997,27.9135506 L32.36997,27.9135506 L22.675,17.25 L32.36997,6.58622338 L32.4244662,6.51430197 C32.5500405,6.31323328 32.517962,6.04503114 32.3363364,5.87991695 Z M42.8535534,5.89633359 C42.6582912,5.70107145 42.3417088,5.70107145 42.1464466,5.89633359 L42.1464466,5.89633359 L31.1464466,16.8963336 L31.0885912,16.9655815 C30.9535951,17.1604496 30.9728803,17.429874 31.1464466,17.6034404 L31.1464466,17.6034404 L42.1464466,28.6034404 L42.2156945,28.6612958 C42.4105626,28.7962919 42.679987,28.7770067 42.8535534,28.6034404 L42.8535534,28.6034404 L42.9114088,28.5341925 C43.0464049,28.3393243 43.0271197,28.0698999 42.8535534,27.8963336 L42.8535534,27.8963336 L32.207,17.25 L42.8535534,6.60344037 L42.9114088,6.53419249 C43.0464049,6.33932435 43.0271197,6.06989994 42.8535534,5.89633359 Z M47.3535534,5.89633359 C47.1582912,5.70107145 46.8417088,5.70107145 46.6464466,5.89633359 L46.6464466,5.89633359 L35.6464466,16.8963336 L35.5885912,16.9655815 C35.4535951,17.1604496 35.4728803,17.429874 35.6464466,17.6034404 L35.6464466,17.6034404 L46.6464466,28.6034404 L46.7156945,28.6612958 C46.9105626,28.7962919 47.179987,28.7770067 47.3535534,28.6034404 L47.3535534,28.6034404 L47.4114088,28.5341925 C47.5464049,28.3393243 47.5271197,28.0698999 47.3535534,27.8963336 L47.3535534,27.8963336 L36.707,17.25 L47.3535534,6.60344037 L47.4114088,6.53419249 C47.5464049,6.33932435 47.5271197,6.06989994 47.3535534,5.89633359 Z M19.2344157,18.5582026 C19.0551997,18.4631421 18.8283447,18.483605 18.6678181,18.6262953 C18.4614267,18.8097543 18.4428363,19.1257905 18.6262953,19.3321819 L18.6262953,19.3321819 L26.6262953,28.3321819 L26.6920263,28.3940039 C26.878631,28.5402101 27.1487229,28.5367793 27.3321819,28.3737047 C27.5385733,28.1902457 27.5571637,27.8742095 27.3737047,27.6678181 L27.3737047,27.6678181 L19.3737047,18.6678181 L19.3079737,18.6059961 Z M19.2320221,23.5569408 C19.0522944,23.4628513 18.8255535,23.4845412 18.6658012,23.628098 C18.4604053,23.8126709 18.443525,24.128803 18.628098,24.3341988 L18.628098,24.3341988 L22.2225804,28.3341988 L22.2886449,28.3956643 C22.4760378,28.5408588 22.7461072,28.5359669 22.9286813,28.371902 C23.1340771,28.1873291 23.1509574,27.871197 22.9663845,27.6658012 L22.9663845,27.6658012 L19.371902,23.6658012 L19.3058375,23.6043357 Z M49.3594969,9.65249175 C49.1675734,9.4539471 48.8510364,9.4485796 48.6524918,9.6405031 L48.6524918,9.6405031 L41.1524918,16.8903901 L41.0933554,16.958806 C40.9548581,17.1518143 40.9700666,17.4222051 41.1416142,17.598541 L41.1416142,17.598541 L48.6416142,25.3078826 L48.7100593,25.3666856 C48.9030511,25.5043508 49.1727154,25.4887754 49.3486541,25.3176143 L49.3486541,25.3176143 L49.4074571,25.2491692 C49.5451222,25.0561774 49.5295469,24.7865131 49.3583858,24.6105745 L49.3583858,24.6105745 L42.208,17.26 L49.3475082,10.3594969 L49.4065294,10.2912399 C49.54481,10.0986885 49.5300956,9.82897589 49.3594969,9.65249175 Z M49.3535534,13.8963336 C49.1582912,13.7010714 48.8417088,13.7010714 48.6464466,13.8963336 L48.6464466,13.8963336 L45.6464466,16.8963336 L45.5885912,16.9655815 C45.4535951,17.1604496 45.4728803,17.429874 45.6464466,17.6034404 L45.6464466,17.6034404 L48.6464466,20.6034404 L48.7156945,20.6612958 C48.9105626,20.7962919 49.179987,20.7770067 49.3535534,20.6034404 L49.3535534,20.6034404 L49.4114088,20.5341925 C49.5464049,20.3393243 49.5271197,20.0698999 49.3535534,19.8963336 L49.3535534,19.8963336 L46.707,17.25 L49.3535534,14.6034404 L49.4114088,14.5341925 C49.5464049,14.3393243 49.5271197,14.0698999 49.3535534,13.8963336 Z M27.3321819,5.62629534 C27.1257905,5.44283633 26.8097543,5.4614267 26.6262953,5.66781808 L26.6262953,5.66781808 L18.6262953,14.6678181 L18.5726061,14.7403439 C18.4492861,14.942803 18.4843591,15.21063 18.6678181,15.3737047 C18.8742095,15.5571637 19.1902457,15.5385733 19.3737047,15.3321819 L19.3737047,15.3321819 L27.3737047,6.33218192 L27.4273939,6.25965614 C27.5507139,6.05719703 27.5156409,5.78937001 27.3321819,5.62629534 Z M22.9286813,5.62809795 C22.7232854,5.44352503 22.4071533,5.46040533 22.2225804,5.66580116 L22.2225804,5.66580116 L18.628098,9.66580116 L18.5740171,9.73803541 C18.4496036,9.93982438 18.4832271,10.2078372 18.6658012,10.371902 C18.871197,10.556475 19.1873291,10.5395947 19.371902,10.3341988 L19.371902,10.3341988 L22.9663845,6.33419884 L23.0204653,6.26196459 C23.1448789,6.06017562 23.1112553,5.79216277 22.9286813,5.62809795 Z" id="形状结合" fill="#D54144"></path>
                        <path d="M16,4 L16,30 L0,30 L0,4 L16,4 Z M8,24.9999956 C7.72385763,24.9999956 7.5,25.2238532 7.5,25.4999956 L7.5,25.4999956 L7.5,28.4999956 L7.50805567,28.5898712 C7.55039163,28.8231204 7.75454011,28.9999956 8,28.9999956 C8.27614237,28.9999956 8.5,28.776138 8.5,28.4999956 L8.5,28.4999956 L8.5,25.4999956 L8.49194433,25.4101199 C8.44960837,25.1768707 8.24545989,24.9999956 8,24.9999956 Z M5,23.9999956 C4.72385763,23.9999956 4.5,24.2238532 4.5,24.4999956 L4.5,24.4999956 L4.5,28.4999956 L4.50805567,28.5898712 C4.55039163,28.8231204 4.75454011,28.9999956 5,28.9999956 C5.27614237,28.9999956 5.5,28.776138 5.5,28.4999956 L5.5,28.4999956 L5.5,24.4999956 L5.49194433,24.4101199 C5.44960837,24.1768707 5.24545989,23.9999956 5,23.9999956 Z M11,23.9999956 C10.7238576,23.9999956 10.5,24.2238532 10.5,24.4999956 L10.5,24.4999956 L10.5,28.4999956 L10.5080557,28.5898712 C10.5503916,28.8231204 10.7545401,28.9999956 11,28.9999956 C11.2761424,28.9999956 11.5,28.776138 11.5,28.4999956 L11.5,28.4999956 L11.5,24.4999956 L11.4919443,24.4101199 C11.4496084,24.1768707 11.2454599,23.9999956 11,23.9999956 Z M14,21.9999956 C13.7238576,21.9999956 13.5,22.2238532 13.5,22.4999956 L13.5,22.4999956 L13.5,28.4999956 L13.5080557,28.5898712 C13.5503916,28.8231204 13.7545401,28.9999956 14,28.9999956 C14.2761424,28.9999956 14.5,28.776138 14.5,28.4999956 L14.5,28.4999956 L14.5,22.4999956 L14.4919443,22.4101199 C14.4496084,22.1768707 14.2454599,21.9999956 14,21.9999956 Z M2,21.9999956 C1.72385763,21.9999956 1.5,22.2238532 1.5,22.4999956 L1.5,22.4999956 L1.5,28.4999956 L1.50805567,28.5898712 C1.55039163,28.8231204 1.75454011,28.9999956 2,28.9999956 C2.27614237,28.9999956 2.5,28.776138 2.5,28.4999956 L2.5,28.4999956 L2.5,22.4999956 L2.49194433,22.4101199 C2.44960837,22.1768707 2.24545989,21.9999956 2,21.9999956 Z M8,11 C4.6862915,11 2,13.6862915 2,17 C2,20.3137085 4.6862915,23 8,23 C11.3137085,23 14,20.3137085 14,17 C14,13.6862915 11.3137085,11 8,11 Z M8,12 C10.7614237,12 13,14.2385763 13,17 C13,19.7614237 10.7614237,22 8,22 C5.23857625,22 3,19.7614237 3,17 C3,14.2385763 5.23857625,12 8,12 Z M8,13 C5.790861,13 4,14.790861 4,17 C4,19.209139 5.790861,21 8,21 C10.209139,21 12,19.209139 12,17 C12,14.790861 10.209139,13 8,13 Z M8,14 C9.65685425,14 11,15.3431458 11,17 C11,18.6568542 9.65685425,20 8,20 C6.34314575,20 5,18.6568542 5,17 C5,15.3431458 6.34314575,14 8,14 Z M8,15 C6.8954305,15 6,15.8954305 6,17 C6,18.1045695 6.8954305,19 8,19 C9.1045695,19 10,18.1045695 10,17 C10,15.8954305 9.1045695,15 8,15 Z M8,16 C8.55228475,16 9,16.4477153 9,17 C9,17.5522847 8.55228475,18 8,18 C7.44771525,18 7,17.5522847 7,17 C7,16.4477153 7.44771525,16 8,16 Z M14,4.99999558 C13.7545401,4.99999558 13.5503916,5.17687074 13.5080557,5.41011994 L13.5,5.49999558 L13.5,11.4999956 C13.5,11.776138 13.7238576,11.9999956 14,11.9999956 C14.2454599,11.9999956 14.4496084,11.8231204 14.4919443,11.5898712 L14.5,11.4999956 L14.5,5.49999558 C14.5,5.2238532 14.2761424,4.99999558 14,4.99999558 Z M2,4.99999558 C1.75454011,4.99999558 1.55039163,5.17687074 1.50805567,5.41011994 L1.5,5.49999558 L1.5,11.4999956 C1.5,11.776138 1.72385763,11.9999956 2,11.9999956 C2.24545989,11.9999956 2.44960837,11.8231204 2.49194433,11.5898712 L2.5,11.4999956 L2.5,5.49999558 C2.5,5.2238532 2.27614237,4.99999558 2,4.99999558 Z M5,4.99999558 C4.75454011,4.99999558 4.55039163,5.17687074 4.50805567,5.41011994 L4.5,5.49999558 L4.5,9.49999558 C4.5,9.77613795 4.72385763,9.99999558 5,9.99999558 C5.24545989,9.99999558 5.44960837,9.82312042 5.49194433,9.58987121 L5.5,9.49999558 L5.5,5.49999558 C5.5,5.2238532 5.27614237,4.99999558 5,4.99999558 Z M11,4.99999558 C10.7545401,4.99999558 10.5503916,5.17687074 10.5080557,5.41011994 L10.5,5.49999558 L10.5,9.49999558 C10.5,9.77613795 10.7238576,9.99999558 11,9.99999558 C11.2454599,9.99999558 11.4496084,9.82312042 11.4919443,9.58987121 L11.5,9.49999558 L11.5,5.49999558 C11.5,5.2238532 11.2761424,4.99999558 11,4.99999558 Z M8,4.99999558 C7.75454011,4.99999558 7.55039163,5.17687074 7.50805567,5.41011994 L7.5,5.49999558 L7.5,8.49999558 C7.5,8.77613795 7.72385763,8.99999558 8,8.99999558 C8.24545989,8.99999558 8.44960837,8.82312042 8.49194433,8.58987121 L8.5,8.49999558 L8.5,5.49999558 C8.5,5.2238532 8.27614237,4.99999558 8,4.99999558 Z" id="形状结合" fill="#D54144"></path>
                        <rect id="矩形备份-34" fill="#D54144" x="17" y="0" width="35" height="4"></rect>
                        <rect id="矩形备份-36" fill="#D54144" x="0" y="0" width="16" height="4"></rect>
                        <rect id="矩形备份-35" fill="#D54144" x="17" y="30" width="35" height="4"></rect>
                        <rect id="矩形备份-37" fill="#D54144" x="0" y="30" width="16" height="4"></rect>
                    </g>
                </g>
            </g>
        </g>
    </g>
</svg>