<?xml version="1.0" encoding="utf-8"?>
<!-- Generator: Adobe Illustrator 25.0.1, SVG Export Plug-In . SVG Version: 6.00 Build 0)  -->
<svg version="1.1" id="图层_1" xmlns="http://www.w3.org/2000/svg" xmlns:xlink="http://www.w3.org/1999/xlink" x="0px" y="0px"
	 viewBox="0 0 181 27" style="enable-background:new 0 0 181 27;" xml:space="preserve">
<style type="text/css">
	.st0{fill:#A0A0A0;}
	.st1{fill:#E8E8E8;}
	.st2{fill:#3A3A3A;}
	.st3{opacity:0.75;fill:#199B02;}
</style>
<g>
	<path class="st0" d="M17.2,23c0,0,0,3-3.6,3S10,23,10,23H17.2z"/>
	<path class="st0" d="M28.1,23c0,0,0,3-3.6,3S21,23,21,23H28.1z"/>
</g>
<g>
	<path class="st0" d="M160,23c0,0,0,3-3.6,3s-3.6-3-3.6-3H160z"/>
	<path class="st0" d="M171,23c0,0,0,3-3.6,3s-3.6-3-3.6-3H171z"/>
</g>
<path class="st1" d="M181,23H0V1c0-0.6,0.4-1,1-1h179c0.6,0,1,0.4,1,1V23z"/>
<g>
	<path class="st2" d="M51.4,13.1h-2.1c-0.6,0-1-0.4-1-1V6.6c0-0.6,0.4-1,1-1h2.1c0.6,0,1,0.4,1,1v5.5C52.4,12.6,52,13.1,51.4,13.1z"
		/>
	<path class="st2" d="M61.7,13.1h-2.1c-0.6,0-1-0.4-1-1V6.6c0-0.6,0.4-1,1-1h2.1c0.6,0,1,0.4,1,1v5.5C62.7,12.6,62.2,13.1,61.7,13.1
		z"/>
	<path class="st2" d="M87,13.1H70.2c-0.6,0-1-0.4-1-1V6.6c0-0.6,0.4-1,1-1H87c0.6,0,1,0.4,1,1v5.5C88,12.6,87.5,13.1,87,13.1z"/>
</g>
<g>
	<g>
		<path class="st2" d="M7.7,13.1H5.6c-0.6,0-1-0.4-1-1V6.6c0-0.6,0.4-1,1-1h2.1c0.6,0,1,0.4,1,1v5.5C8.7,12.6,8.2,13.1,7.7,13.1z"/>
		<path class="st2" d="M17.9,13.1h-2.1c-0.6,0-1-0.4-1-1V6.6c0-0.6,0.4-1,1-1h2.1c0.6,0,1,0.4,1,1v5.5
			C18.9,12.6,18.5,13.1,17.9,13.1z"/>
		<path class="st2" d="M43.2,13.1H26.4c-0.6,0-1-0.4-1-1V6.6c0-0.6,0.4-1,1-1h16.8c0.6,0,1,0.4,1,1v5.5
			C44.2,12.6,43.8,13.1,43.2,13.1z"/>
	</g>
	<g>
		<path class="st2" d="M95.8,13.1h-2.1c-0.6,0-1-0.4-1-1V6.6c0-0.6,0.4-1,1-1h2.1c0.6,0,1,0.4,1,1v5.5
			C96.8,12.6,96.4,13.1,95.8,13.1z"/>
		<path class="st2" d="M106,13.1h-2.1c-0.6,0-1-0.4-1-1V6.6c0-0.6,0.4-1,1-1h2.1c0.6,0,1,0.4,1,1v5.5C107,12.6,106.6,13.1,106,13.1z
			"/>
		<path class="st2" d="M131.3,13.1h-16.8c-0.6,0-1-0.4-1-1V6.6c0-0.6,0.4-1,1-1h16.8c0.6,0,1,0.4,1,1v5.5
			C132.3,12.6,131.9,13.1,131.3,13.1z"/>
	</g>
	<g>
		<path class="st2" d="M139.9,13.1h-2.1c-0.6,0-1-0.4-1-1V6.6c0-0.6,0.4-1,1-1h2.1c0.6,0,1,0.4,1,1v5.5
			C140.9,12.6,140.4,13.1,139.9,13.1z"/>
		<path class="st2" d="M150.1,13.1H148c-0.6,0-1-0.4-1-1V6.6c0-0.6,0.4-1,1-1h2.1c0.6,0,1,0.4,1,1v5.5
			C151.1,12.6,150.7,13.1,150.1,13.1z"/>
		<path class="st2" d="M175.4,13.1h-16.8c-0.6,0-1-0.4-1-1V6.6c0-0.6,0.4-1,1-1h16.8c0.6,0,1,0.4,1,1v5.5
			C176.4,12.6,176,13.1,175.4,13.1z"/>
	</g>
</g>
<path class="st3" d="M181,3.9H0V1c0-0.6,0.4-1,1-1h179c0.6,0,1,0.4,1,1V3.9z"/>
<rect y="14.8" class="st3" width="181" height="3.9"/>
</svg>
