<?xml version="1.0" encoding="utf-8"?>
<!-- Generator: Adobe Illustrator 25.0.1, SVG Export Plug-In . SVG Version: 6.00 Build 0)  -->
<svg version="1.1" id="图层_1" xmlns="http://www.w3.org/2000/svg" xmlns:xlink="http://www.w3.org/1999/xlink" x="0px" y="0px"
	 viewBox="0 0 185 27" style="enable-background:new 0 0 185 27;" xml:space="preserve">
<style type="text/css">
	.st0{fill:#A0A0A0;}
	.st1{fill:#E8E8E8;}
	.st2{fill:#3A3A3A;}
	.st3{opacity:0.75;fill:#199B02;}
	.st4{opacity:0.75;clip-path:url(#SVGID_2_);fill:#199B02;}
</style>
<g id="图层_2_1_">
</g>
<g>
	<g>
		<path class="st0" d="M163.8,23c0,0,0,3,3.6,3s3.6-3,3.6-3H163.8z"/>
		<path class="st0" d="M152.9,23c0,0,0,3,3.6,3s3.6-3,3.6-3H152.9z"/>
	</g>
	<g>
		<path class="st0" d="M21,23c0,0,0,3,3.6,3s3.6-3,3.6-3H21z"/>
		<path class="st0" d="M10,23c0,0,0,3,3.6,3s3.6-3,3.6-3H10z"/>
	</g>
	<path class="st1" d="M0,23h181v-3c0-11-9-20-20-20L1,0C0.4,0,0,0.4,0,1L0,23z"/>
	<g>
		<g>
			<path class="st2" d="M104.4,13.1h2.1c0.6,0,1-0.4,1-1V6.6c0-0.6-0.4-1-1-1h-2.1c-0.6,0-1,0.4-1,1v5.5
				C103.4,12.6,103.8,13.1,104.4,13.1z"/>
			<path class="st2" d="M94.2,13.1h2.1c0.6,0,1-0.4,1-1V6.6c0-0.6-0.4-1-1-1h-2.1c-0.6,0-1,0.4-1,1v5.5
				C93.2,12.6,93.6,13.1,94.2,13.1z"/>
			<path class="st2" d="M68.9,13.1h16.8c0.6,0,1-0.4,1-1V6.6c0-0.6-0.4-1-1-1H68.9c-0.6,0-1,0.4-1,1v5.5
				C67.9,12.6,68.3,13.1,68.9,13.1z"/>
		</g>
		<g>
			<path class="st2" d="M148.1,13.1h2.1c0.6,0,1-0.4,1-1V6.6c0-0.6-0.4-1-1-1h-2.1c-0.6,0-1,0.4-1,1v5.5
				C147.1,12.6,147.6,13.1,148.1,13.1z"/>
			<path class="st2" d="M137.9,13.1h2.1c0.6,0,1-0.4,1-1V6.6c0-0.6-0.4-1-1-1h-2.1c-0.6,0-1,0.4-1,1v5.5
				C136.9,12.6,137.4,13.1,137.9,13.1z"/>
			<path class="st2" d="M112.6,13.1h16.8c0.6,0,1-0.4,1-1V6.6c0-0.6-0.4-1-1-1h-16.8c-0.6,0-1,0.4-1,1v5.5
				C111.6,12.6,112.1,13.1,112.6,13.1z"/>
			<path class="st2" d="M159.7,13.1h8.5c0.9,0,1.7-0.8,1.7-1.7v-0.1c0-3.1-2.5-5.7-5.7-5.7h-4.5c-0.9,0-1.7,0.8-1.7,1.7v4.1
				C158,12.3,158.7,13.1,159.7,13.1z"/>
		</g>
		<g>
			<path class="st2" d="M60,13.1h2.1c0.6,0,1-0.4,1-1V6.6c0-0.6-0.4-1-1-1H60c-0.6,0-1,0.4-1,1v5.5C59,12.6,59.5,13.1,60,13.1z"/>
			<path class="st2" d="M49.8,13.1h2.1c0.6,0,1-0.4,1-1V6.6c0-0.6-0.4-1-1-1h-2.1c-0.6,0-1,0.4-1,1v5.5
				C48.8,12.6,49.2,13.1,49.8,13.1z"/>
			<path class="st2" d="M24.5,13.1h16.8c0.6,0,1-0.4,1-1V6.6c0-0.6-0.4-1-1-1H24.5c-0.6,0-1,0.4-1,1v5.5
				C23.5,12.6,23.9,13.1,24.5,13.1z"/>
		</g>
		<g>
			<path class="st2" d="M16,13.1h2.1c0.6,0,1-0.4,1-1V6.6c0-0.6-0.4-1-1-1H16c-0.6,0-1,0.4-1,1v5.5C15,12.6,15.4,13.1,16,13.1z"/>
			<path class="st2" d="M5.7,13.1h2.1c0.6,0,1-0.4,1-1V6.6c0-0.6-0.4-1-1-1H5.7c-0.6,0-1,0.4-1,1v5.5C4.7,12.6,5.2,13.1,5.7,13.1z"
				/>
		</g>
	</g>
	<path class="st3" d="M0,18.6h181l-10,0c0-2.1-1.7-3.9-3.9-3.9H0L0,18.6z"/>
	<g>
		<defs>
			<path id="SVGID_1_" d="M0,3.9h181v0c0-2.1-1.7-3.9-3.9-3.9L1,0C0.4,0,0,0.4,0,1L0,3.9z"/>
		</defs>
		<clipPath id="SVGID_2_">
			<use xlink:href="#SVGID_1_"  style="overflow:visible;"/>
		</clipPath>
		<path class="st4" d="M0,23h181v-3c0-11-9-20-20-20L1,0C0.4,0,0,0.4,0,1L0,23z"/>
	</g>
</g>
</svg>
