<?xml version="1.0" encoding="utf-8"?>
<!-- Generator: Adobe Illustrator 24.0.0, SVG Export Plug-In . SVG Version: 6.00 Build 0)  -->
<svg version="1.1" id="图层_1" xmlns="http://www.w3.org/2000/svg" xmlns:xlink="http://www.w3.org/1999/xlink" x="0px" y="0px"
	 viewBox="0 0 306 304.7" style="enable-background:new 0 0 306 304.7;" xml:space="preserve">
<style type="text/css">
	.st0{fill:#BFBFBF;}
</style>
<g>
	<g>
		<path class="st0" d="M171.7,251.5c0-36.1,30.4-65.3,67.8-65.3c4.3,0,8.5,0.4,12.5,1.1V25c0-13.6-11-24.6-24.6-24.6H38.3
			c-13.6,0-24.6,11-24.6,24.6v187.5c0,13.6,11,24.6,24.6,24.6h16.9l-26.4,25.4c-1.1,1-1.7,2.4-1.7,3.9v18.8c0,3,2.4,5.4,5.4,5.4
			h152.6C176.7,279.7,171.7,266.2,171.7,251.5z M192.3,171.7c-11,0-19.9-8.9-19.9-19.9s8.9-19.9,19.9-19.9s19.9,8.9,19.9,19.9
			S203.3,171.7,192.3,171.7z M53.5,50.9c0-6.3,5.1-11.3,11.3-11.3h136c6.3,0,11.3,5.1,11.3,11.3v43.2c0,6.3-5.1,11.3-11.3,11.3h-136
			c-6.3,0-11.3-5.1-11.3-11.3C53.5,94.1,53.5,50.9,53.5,50.9z M72.6,171.7c-11,0-19.9-8.9-19.9-19.9s8.9-19.9,19.9-19.9
			s19.9,8.9,19.9,19.9C92.4,162.8,83.5,171.7,72.6,171.7z"/>
		<path class="st0" d="M239.5,198.7c-29.2,0-52.8,23.6-52.8,52.8s23.6,52.8,52.8,52.8s52.8-23.6,52.8-52.8S268.7,198.7,239.5,198.7z
			 M209.5,241c0-4.4,3.6-8,8-8s8,3.6,8,8s-3.6,8-8,8C213.1,248.9,209.5,245.4,209.5,241z M249.9,279.1c0-6.1-5-11.1-11.1-11.1
			s-11.1,5-11.1,11.1H219c0-10.9,8.9-19.8,19.8-19.8s19.8,8.9,19.8,19.8H249.9z M260,248.9c-4.4,0-8-3.6-8-8s3.6-8,8-8s8,3.6,8,8
			C268,245.4,264.4,248.9,260,248.9z"/>
	</g>
</g>
</svg>
