<svg xmlns="http://www.w3.org/2000/svg" viewBox="0 0 876.24 783.38"><defs><style>.cls-1{fill:#ee7828;}</style></defs><title>资源 1</title><g id="图层_2" data-name="图层 2"><g id="图层_1-2" data-name="图层 1"><path class="cls-1" d="M488.72,247.4a52.1,52.1,0,0,0,.28-5.33,49.08,49.08,0,1,0-98.16,0v.17h-.15l11.06,233.94v.38a38.17,38.17,0,1,0,76.34,0c0-.35,0-.69,0-1ZM319.88,83.5c65.28-111.45,171.25-111.21,236.39,0L848,581.59C913.29,693,861.55,783.38,732.11,783.38H144c-129.29,0-181-90.58-115.9-201.79Zm120,589.38a49.08,49.08,0,1,0-49.08-49.08,49.08,49.08,0,0,0,49.08,49.08Z"/></g></g></svg>